<svg width="172" height="39" viewBox="0 0 172 39" fill="none" xmlns="http://www.w3.org/2000/svg">
<path d="M34.7967 10.8333H4.20334C3.66318 10.8333 3.14515 11.0479 2.7632 11.4299C2.38125 11.8118 2.16667 12.3298 2.16667 12.87V32.63C2.16667 33.1702 2.38125 33.6882 2.7632 34.0701C3.14515 34.4521 3.66318 34.6667 4.20334 34.6667H34.7967C35.3368 34.6667 35.8549 34.4521 36.2368 34.0701C36.6188 33.6882 36.8333 33.1702 36.8333 32.63V12.87C36.8333 12.3298 36.6188 11.8118 36.2368 11.4299C35.8549 11.0479 35.3368 10.8333 34.7967 10.8333V10.8333ZM26.195 23.6492L15.6108 28.3725C15.446 28.4466 15.2653 28.4783 15.0851 28.4647C14.905 28.4511 14.731 28.3926 14.5792 28.2946C14.4274 28.1966 14.3025 28.0622 14.2159 27.9037C14.1293 27.7451 14.0837 27.5674 14.0833 27.3867V17.94C14.0837 17.7593 14.1293 17.5816 14.2159 17.423C14.3025 17.2644 14.4274 17.13 14.5792 17.032C14.731 16.934 14.905 16.8756 15.0851 16.862C15.2653 16.8484 15.446 16.8801 15.6108 16.9542L26.195 21.6667C26.3872 21.7514 26.5507 21.8903 26.6654 22.0663C26.7802 22.2423 26.8413 22.4478 26.8413 22.6579C26.8413 22.868 26.7802 23.0736 26.6654 23.2496C26.5507 23.4256 26.3872 23.5644 26.195 23.6492V23.6492Z" fill="#F43F5E"/>
<path d="M32.6517 3.25001C32.6517 2.96269 32.5375 2.68714 32.3344 2.48397C32.1312 2.28081 31.8557 2.16667 31.5683 2.16667H7.73501C7.44769 2.16667 7.17214 2.28081 6.96897 2.48397C6.76581 2.68714 6.65167 2.96269 6.65167 3.25001V4.33334H32.6517V3.25001Z" fill="#F43F5E"/>
<path d="M34.7967 7.58333C34.7967 7.29602 34.6825 7.02047 34.4794 6.8173C34.2762 6.61414 34.0007 6.5 33.7133 6.5H5.54667C5.25935 6.5 4.9838 6.61414 4.78063 6.8173C4.57747 7.02047 4.46333 7.29602 4.46333 7.58333V8.66667H34.7967V7.58333Z" fill="#F43F5E"/>
<path d="M55.885 6.7H63.947C66.731 6.7 69.051 7.67633 70.907 9.629C72.7823 11.5623 73.72 13.9693 73.72 16.85C73.72 19.7307 72.7823 22.1377 70.907 24.071C69.051 26.0237 66.731 27 63.947 27H55.885V6.7ZM59.887 23.172H63.947C65.7063 23.172 67.137 22.592 68.239 21.432C69.341 20.2333 69.892 18.706 69.892 16.85C69.892 14.9747 69.341 13.457 68.239 12.297C67.137 11.1177 65.7063 10.528 63.947 10.528H59.887V23.172ZM88.7388 25.202C87.2695 26.6713 85.4522 27.406 83.2868 27.406C81.1215 27.406 79.3042 26.6713 77.8348 25.202C76.3655 23.7327 75.6308 21.9153 75.6308 19.75C75.6308 17.604 76.3655 15.7963 77.8348 14.327C79.3235 12.8383 81.1408 12.094 83.2868 12.094C85.4328 12.094 87.2502 12.8383 88.7388 14.327C90.2275 15.8157 90.9718 17.6233 90.9718 19.75C90.9718 21.896 90.2275 23.7133 88.7388 25.202ZM80.4738 22.621C81.2278 23.375 82.1655 23.752 83.2868 23.752C84.4082 23.752 85.3458 23.375 86.0998 22.621C86.8538 21.867 87.2308 20.91 87.2308 19.75C87.2308 18.59 86.8538 17.633 86.0998 16.879C85.3458 16.125 84.4082 15.748 83.2868 15.748C82.1655 15.748 81.2278 16.125 80.4738 16.879C79.7392 17.6523 79.3718 18.6093 79.3718 19.75C79.3718 20.8907 79.7392 21.8477 80.4738 22.621ZM104.711 14.298V12.5H108.365V26.304C108.365 28.5273 107.62 30.2383 106.132 31.437C104.662 32.6163 102.884 33.206 100.796 33.206C97.5089 33.206 95.2179 32.0267 93.9226 29.668L97.1126 27.841C97.8279 29.1943 99.0942 29.871 100.912 29.871C102.091 29.871 103.019 29.5617 103.696 28.943C104.372 28.3243 104.711 27.4447 104.711 26.304V24.738C103.609 26.2073 102.062 26.942 100.071 26.942C98.0212 26.942 96.3006 26.2267 94.9086 24.796C93.5359 23.3267 92.8496 21.5673 92.8496 19.518C92.8496 17.4687 93.5456 15.719 94.9376 14.269C96.3296 12.819 98.0406 12.094 100.071 12.094C102.062 12.094 103.609 12.8287 104.711 14.298ZM103.551 22.389C104.324 21.635 104.711 20.678 104.711 19.518C104.711 18.358 104.324 17.4203 103.551 16.705C102.797 15.951 101.83 15.574 100.651 15.574C99.4906 15.574 98.5142 15.951 97.7216 16.705C96.9676 17.4203 96.5906 18.358 96.5906 19.518C96.5906 20.678 96.9676 21.635 97.7216 22.389C98.4949 23.1237 99.4712 23.491 100.651 23.491C101.83 23.491 102.797 23.1237 103.551 22.389ZM125.851 21.287H114.918C115.401 23.1043 116.764 24.013 119.007 24.013C120.438 24.013 121.52 23.5297 122.255 22.563L125.271 24.303C123.84 26.3717 121.733 27.406 118.949 27.406C116.552 27.406 114.628 26.681 113.178 25.231C111.728 23.781 111.003 21.954 111.003 19.75C111.003 17.5847 111.718 15.7673 113.149 14.298C114.56 12.8287 116.397 12.094 118.659 12.094C120.805 12.094 122.555 12.8287 123.908 14.298C125.3 15.7673 125.996 17.5847 125.996 19.75C125.996 20.156 125.948 20.6683 125.851 21.287ZM114.86 18.387H122.255C122.042 17.4397 121.607 16.7147 120.95 16.212C120.312 15.7093 119.548 15.458 118.659 15.458C117.654 15.458 116.822 15.719 116.165 16.241C115.508 16.7437 115.073 17.459 114.86 18.387ZM140.903 6.7V10.528H132.783V15.342H140.671V19.17H132.783V27H128.781V6.7H140.903ZM147.387 27H143.646V5.83H147.387V27ZM152.667 10.76C152.048 10.76 151.507 10.5377 151.043 10.093C150.598 9.629 150.376 9.08767 150.376 8.469C150.376 7.85033 150.598 7.309 151.043 6.845C151.507 6.381 152.048 6.149 152.667 6.149C153.305 6.149 153.846 6.381 154.291 6.845C154.755 7.309 154.987 7.85033 154.987 8.469C154.987 9.08767 154.755 9.629 154.291 10.093C153.846 10.5377 153.305 10.76 152.667 10.76ZM154.552 27H150.811V12.5H154.552V27ZM166.038 19.576L171.345 27H167.024L163.892 22.592L160.731 27H156.41L161.717 19.605L156.642 12.5H160.963L163.892 16.589L166.821 12.5H171.113L166.038 19.576Z" fill="white"/>
</svg>
