<svg width="39" height="39" viewBox="0 0 39 39" fill="none" xmlns="http://www.w3.org/2000/svg">
<path d="M34.7967 10.8333H4.20334C3.66318 10.8333 3.14515 11.0479 2.7632 11.4299C2.38125 11.8118 2.16667 12.3298 2.16667 12.87V32.63C2.16667 33.1702 2.38125 33.6882 2.7632 34.0701C3.14515 34.4521 3.66318 34.6667 4.20334 34.6667H34.7967C35.3368 34.6667 35.8549 34.4521 36.2368 34.0701C36.6188 33.6882 36.8333 33.1702 36.8333 32.63V12.87C36.8333 12.3298 36.6188 11.8118 36.2368 11.4299C35.8549 11.0479 35.3368 10.8333 34.7967 10.8333V10.8333ZM26.195 23.6492L15.6108 28.3725C15.446 28.4466 15.2653 28.4783 15.0851 28.4647C14.905 28.4511 14.731 28.3926 14.5792 28.2946C14.4274 28.1966 14.3025 28.0622 14.2159 27.9037C14.1293 27.7451 14.0837 27.5674 14.0833 27.3867V17.94C14.0837 17.7593 14.1293 17.5816 14.2159 17.423C14.3025 17.2644 14.4274 17.13 14.5792 17.032C14.731 16.934 14.905 16.8756 15.0851 16.862C15.2653 16.8484 15.446 16.8801 15.6108 16.9542L26.195 21.6667C26.3872 21.7514 26.5507 21.8903 26.6654 22.0663C26.7802 22.2423 26.8413 22.4478 26.8413 22.6579C26.8413 22.868 26.7802 23.0736 26.6654 23.2496C26.5507 23.4256 26.3872 23.5644 26.195 23.6492V23.6492Z" fill="#52525B"/>
<path d="M32.6517 3.25001C32.6517 2.96269 32.5375 2.68714 32.3344 2.48397C32.1312 2.28081 31.8557 2.16667 31.5683 2.16667H7.73501C7.44769 2.16667 7.17214 2.28081 6.96897 2.48397C6.76581 2.68714 6.65167 2.96269 6.65167 3.25001V4.33334H32.6517V3.25001Z" fill="#52525B"/>
<path d="M34.7967 7.58333C34.7967 7.29602 34.6825 7.02047 34.4794 6.8173C34.2762 6.61414 34.0007 6.5 33.7133 6.5H5.54667C5.25935 6.5 4.9838 6.61414 4.78063 6.8173C4.57747 7.02047 4.46333 7.29602 4.46333 7.58333V8.66667H34.7967V7.58333Z" fill="#52525B"/>
</svg>



