<svg width="104" height="32" viewBox="0 0 104 32" fill="none" xmlns="http://www.w3.org/2000/svg">
<path d="M28.5511 8.88889H3.44888C3.00568 8.88889 2.58062 9.06495 2.26723 9.37834C1.95383 9.69174 1.77777 10.1168 1.77777 10.56V26.7733C1.77777 27.2165 1.95383 27.6416 2.26723 27.955C2.58062 28.2684 3.00568 28.4444 3.44888 28.4444H28.5511C28.9943 28.4444 29.4194 28.2684 29.7328 27.955C30.0462 27.6416 30.2222 27.2165 30.2222 26.7733V10.56C30.2222 10.1168 30.0462 9.69174 29.7328 9.37834C29.4194 9.06495 28.9943 8.88889 28.5511 8.88889V8.88889ZM21.4933 19.4044L12.8089 23.28C12.6737 23.3408 12.5254 23.3668 12.3775 23.3556C12.2297 23.3445 12.087 23.2965 11.9624 23.2161C11.8379 23.1357 11.7354 23.0254 11.6643 22.8953C11.5932 22.7652 11.5559 22.6194 11.5555 22.4711V14.72C11.5559 14.5717 11.5932 14.4259 11.6643 14.2958C11.7354 14.1657 11.8379 14.0554 11.9624 13.975C12.087 13.8946 12.2297 13.8466 12.3775 13.8355C12.5254 13.8243 12.6737 13.8503 12.8089 13.9111L21.4933 17.7778C21.6511 17.8473 21.7852 17.9612 21.8793 18.1056C21.9735 18.2501 22.0236 18.4187 22.0236 18.5911C22.0236 18.7635 21.9735 18.9322 21.8793 19.0766C21.7852 19.221 21.6511 19.3349 21.4933 19.4044V19.4044Z" fill="#F43F5E"/>
<path d="M26.7911 2.66666C26.7911 2.43091 26.6975 2.20482 26.5308 2.03812C26.3641 1.87142 26.138 1.77777 25.9022 1.77777H6.34667C6.11092 1.77777 5.88483 1.87142 5.71813 2.03812C5.55143 2.20482 5.45778 2.43091 5.45778 2.66666V3.55555H26.7911V2.66666Z" fill="#F43F5E"/>
<path d="M28.5511 6.22222C28.5511 5.98647 28.4575 5.76038 28.2908 5.59368C28.1241 5.42698 27.898 5.33333 27.6622 5.33333H4.55111C4.31536 5.33333 4.08926 5.42698 3.92257 5.59368C3.75587 5.76038 3.66222 5.98647 3.66222 6.22222V7.11111H28.5511V6.22222Z" fill="#F43F5E"/>
<path d="M40.04 10.8H44.488C46.024 10.8 47.304 11.3387 48.328 12.416C49.3627 13.4827 49.88 14.8107 49.88 16.4C49.88 17.9893 49.3627 19.3173 48.328 20.384C47.304 21.4613 46.024 22 44.488 22H40.04V10.8ZM42.248 19.888H44.488C45.4587 19.888 46.248 19.568 46.856 18.928C47.464 18.2667 47.768 17.424 47.768 16.4C47.768 15.3653 47.464 14.528 46.856 13.888C46.248 13.2373 45.4587 12.912 44.488 12.912H42.248V19.888ZM58.1663 21.008C57.3556 21.8187 56.3529 22.224 55.1583 22.224C53.9636 22.224 52.9609 21.8187 52.1503 21.008C51.3396 20.1973 50.9342 19.1947 50.9342 18C50.9342 16.816 51.3396 15.8187 52.1503 15.008C52.9716 14.1867 53.9743 13.776 55.1583 13.776C56.3423 13.776 57.3449 14.1867 58.1663 15.008C58.9876 15.8293 59.3983 16.8267 59.3983 18C59.3983 19.184 58.9876 20.1867 58.1663 21.008ZM53.6063 19.584C54.0223 20 54.5396 20.208 55.1583 20.208C55.7769 20.208 56.2943 20 56.7103 19.584C57.1263 19.168 57.3343 18.64 57.3343 18C57.3343 17.36 57.1263 16.832 56.7103 16.416C56.2943 16 55.7769 15.792 55.1583 15.792C54.5396 15.792 54.0223 16 53.6063 16.416C53.2009 16.8427 52.9983 17.3707 52.9983 18C52.9983 18.6293 53.2009 19.1573 53.6063 19.584ZM66.9783 14.992V14H68.9943V21.616C68.9943 22.8427 68.5836 23.7867 67.7623 24.448C66.9516 25.0987 65.9703 25.424 64.8183 25.424C63.0049 25.424 61.7409 24.7733 61.0263 23.472L62.7863 22.464C63.1809 23.2107 63.8796 23.584 64.8823 23.584C65.5329 23.584 66.0449 23.4133 66.4183 23.072C66.7916 22.7307 66.9783 22.2453 66.9783 21.616V20.752C66.3703 21.5627 65.5169 21.968 64.4183 21.968C63.2876 21.968 62.3383 21.5733 61.5703 20.784C60.8129 19.9733 60.4342 19.0027 60.4342 17.872C60.4342 16.7413 60.8183 15.776 61.5863 14.976C62.3543 14.176 63.2983 13.776 64.4183 13.776C65.5169 13.776 66.3703 14.1813 66.9783 14.992ZM66.3383 19.456C66.7649 19.04 66.9783 18.512 66.9783 17.872C66.9783 17.232 66.7649 16.7147 66.3383 16.32C65.9223 15.904 65.3889 15.696 64.7383 15.696C64.0983 15.696 63.5596 15.904 63.1223 16.32C62.7063 16.7147 62.4983 17.232 62.4983 17.872C62.4983 18.512 62.7063 19.04 63.1223 19.456C63.5489 19.8613 64.0876 20.064 64.7383 20.064C65.3889 20.064 65.9223 19.8613 66.3383 19.456ZM78.6419 18.848H72.6099C72.8765 19.8507 73.6285 20.352 74.8659 20.352C75.6552 20.352 76.2525 20.0853 76.6579 19.552L78.3219 20.512C77.5325 21.6533 76.3699 22.224 74.8339 22.224C73.5112 22.224 72.4499 21.824 71.6499 21.024C70.8499 20.224 70.4499 19.216 70.4499 18C70.4499 16.8053 70.8445 15.8027 71.6339 14.992C72.4125 14.1813 73.4259 13.776 74.6739 13.776C75.8579 13.776 76.8232 14.1813 77.5699 14.992C78.3379 15.8027 78.7219 16.8053 78.7219 18C78.7219 18.224 78.6952 18.5067 78.6419 18.848ZM72.5779 17.248H76.6579C76.5405 16.7253 76.3005 16.3253 75.9379 16.048C75.5859 15.7707 75.1645 15.632 74.6739 15.632C74.1192 15.632 73.6605 15.776 73.2979 16.064C72.9352 16.3413 72.6952 16.736 72.5779 17.248ZM86.9468 10.8V12.912H82.4668V15.568H86.8188V17.68H82.4668V22H80.2588V10.8H86.9468ZM90.5236 22H88.4596V10.32H90.5236V22ZM93.4368 13.04C93.0954 13.04 92.7968 12.9173 92.5408 12.672C92.2954 12.416 92.1728 12.1173 92.1728 11.776C92.1728 11.4347 92.2954 11.136 92.5408 10.88C92.7968 10.624 93.0954 10.496 93.4368 10.496C93.7888 10.496 94.0874 10.624 94.3328 10.88C94.5888 11.136 94.7168 11.4347 94.7168 11.776C94.7168 12.1173 94.5888 12.416 94.3328 12.672C94.0874 12.9173 93.7888 13.04 93.4368 13.04ZM94.4768 22H92.4128V14H94.4768V22ZM100.814 17.904L103.742 22H101.358L99.6299 19.568L97.8859 22H95.5019L98.4299 17.92L95.6299 14H98.0139L99.6299 16.256L101.246 14H103.614L100.814 17.904Z" fill="white"/>
</svg>
